<svg width="861" height="85" viewBox="0 0 861 85" fill="none" xmlns="http://www.w3.org/2000/svg">
<g clip-path="url(#clip0_118_97)">
<path fill-rule="evenodd" clip-rule="evenodd" d="M636.764 16.5362C636.764 6.23864 619.388 0.519995 604.791 0.519995V0.5C579.377 0.5 561.682 18.0158 561.682 42.1501C561.682 66.4043 579.617 84.48 604.691 84.48C616.769 84.48 638.623 80.141 638.623 67.784V43.3098H611.97C610.95 43.3098 610.11 44.1496 610.11 45.1694V52.6676C610.11 53.6873 610.95 54.5271 611.97 54.5271H624.947V63.2251C624.947 69.9635 612.75 71.6831 606.191 71.6831C588.115 71.6831 577.318 58.8661 577.318 41.5902C577.318 24.3143 588.135 13.3369 605.491 13.3369C614.229 13.3369 623.087 16.1963 623.087 21.7949V25.894C623.087 26.9137 623.927 27.7535 624.947 27.7535H634.904C635.924 27.7535 636.764 26.9137 636.764 25.894V16.5362ZM155.458 17.1164C155.458 15.7167 154.338 14.597 152.939 14.597H149.86C148.84 14.597 148 13.7572 148 12.7374V3.75958C148 2.73982 148.84 1.90002 149.86 1.90002H162.716C168.235 1.90002 170.535 4.29945 170.535 9.67817V67.9043C170.535 69.304 171.654 70.4237 173.054 70.4237H190.89C192.269 70.4237 193.409 69.284 193.409 67.9043V64.845C193.409 63.8253 194.249 62.9855 195.269 62.9855H205.226C206.246 62.9855 207.086 63.8253 207.086 64.845V75.3425C207.086 79.6415 203.587 83.1207 199.268 83.1207H163.276C158.957 83.1207 155.458 79.6415 155.458 75.3425V17.1164ZM254.175 46.509H252.335C242.777 46.509 217.483 47.9887 217.483 66.2843C217.483 77.9615 227.041 84.48 237.499 84.48C250.735 84.48 255.214 74.1824 255.214 74.1824H255.434C255.434 74.1824 255.314 75.2022 255.314 76.7018C255.314 80.141 257.394 83.1003 262.793 83.1003H275.89V70.8632H271.291C269.891 70.8632 268.771 69.7435 268.771 68.3438V46.609C268.771 33.5721 263.013 23.3945 243.477 23.3945C237.379 23.3945 221.982 24.5343 221.982 35.4117V39.7306C221.982 40.7504 222.822 41.5902 223.842 41.5902H233.68C234.699 41.5902 235.539 40.7504 235.539 39.7306V38.5109C235.539 35.3117 240.718 34.6119 243.357 34.6119C250.835 34.6119 254.175 37.7111 254.175 46.0491V46.509ZM254.395 57.8263C254.395 64.9047 248.876 73.1427 241.058 73.1427C235.079 73.1427 232.2 69.4836 232.22 65.5845C232.22 57.4664 244.277 56.4467 251.875 56.4467H254.395V57.8263ZM282.988 37.1313C284.588 37.1313 285.507 37.9311 285.507 39.6507V62.2853C285.507 78.1816 293.206 84.4801 305.743 84.4801C315.86 84.4801 323.218 78.4215 325.978 72.3629H326.198C326.198 72.3629 326.078 73.6026 326.078 74.9823V76.5819C326.078 80.701 328.737 83.1004 333.796 83.1004H345.373C346.393 83.1004 347.233 82.2606 347.233 81.2408V72.7229C347.233 71.7031 346.393 70.8633 345.373 70.8633H342.634C341.254 70.8633 340.114 69.7236 340.114 68.3439V24.7543H325.518V51.5279C325.518 61.9454 319.659 71.2032 309.082 71.2032C301.844 71.2032 300.004 66.3844 300.004 59.306V32.4324C300.004 27.1737 297.705 24.7743 292.286 24.7743H280.249C279.229 24.7743 278.389 25.6141 278.389 26.6338V35.2718C278.389 36.2915 279.229 37.1313 280.249 37.1313H282.988ZM354.451 37.1313C354.598 37.1313 354.74 37.1379 354.875 37.1513H354.451V37.1313ZM354.875 37.1513C356.227 37.2846 356.97 38.0877 356.97 39.6507V83.1203H371.467V56.3667C371.467 53.6074 371.827 50.988 372.626 48.5886C374.706 41.6102 380.564 36.6914 388.383 36.6914C395.741 36.6914 397.58 41.5102 397.58 48.5886V75.3422C397.58 79.6412 401.08 83.1203 405.399 83.1203H419.315V70.8832H414.716C413.317 70.8832 412.197 69.7635 412.197 68.3638V45.6093C412.197 30.1529 404.719 23.4146 391.722 23.4146C379.865 23.4146 373.546 30.6328 371.027 35.5517H370.787C370.787 35.5517 371.027 34.292 371.027 33.0323V31.3127C371.027 27.1937 368.507 24.7942 363.309 24.7942H356.29C355.27 24.7942 354.431 25.634 354.431 26.6538V35.2917C354.431 36.3115 355.27 37.1513 356.29 37.1513H354.875ZM479.261 36.5514C479.261 26.4777 465.595 23.3969 457.995 23.3945C437.886 23.3996 425.934 37.0144 425.934 53.9473C425.934 70.8832 438.351 84.5 457.666 84.5C470.483 84.5 478.641 77.7216 481.38 75.0422C482 74.4424 482.1 73.5026 481.66 72.7628L477.481 65.8644C476.881 64.8647 475.542 64.6447 474.662 65.4045C471.963 67.684 466.124 71.783 458.926 71.783C449.488 71.783 440.63 65.7245 440.63 53.8273C440.63 43.2898 447.868 35.6316 457.986 35.6316C461.565 35.6316 466.384 37.0113 466.384 40.2105V41.5502C466.384 42.57 467.224 43.4098 468.244 43.4098H477.401C478.421 43.4098 479.261 42.57 479.261 41.5502V36.5514ZM491.138 14.2567C492.758 14.2567 493.658 15.0566 493.658 16.7761V81.2808C493.658 82.3005 494.498 83.1403 495.517 83.1403H506.395C507.415 83.1403 508.254 82.3005 508.254 81.2808V56.3667C508.254 53.6074 508.494 51.108 509.174 48.8085C511.354 41.7102 517.332 36.6714 525.05 36.6714C532.768 36.6714 534.368 41.4903 534.368 48.5686V75.3222C534.368 80.8209 536.668 83.1003 542.066 83.1003H554.123C555.143 83.1003 555.983 82.2606 555.983 81.2408V72.7228C555.983 71.7031 555.143 70.8633 554.123 70.8633H551.384C549.984 70.8633 548.865 69.7435 548.865 68.3439V45.5893C548.865 30.133 541.506 23.3946 528.39 23.3946C518.272 23.3946 511.014 29.3531 508.254 34.9518H508.034C508.034 34.9518 508.254 32.8923 508.254 30.033V9.57786C508.254 4.31911 505.835 1.91968 500.436 1.91968H488.379C487.359 1.91968 486.52 2.75948 486.52 3.77924V12.4172C486.52 13.4369 487.359 14.2767 488.379 14.2767H491.118L491.138 14.2567ZM681.613 23.3945C699.569 23.3945 713.825 36.0915 713.825 53.9473C713.825 71.923 699.429 84.5 681.613 84.5C663.797 84.5 649.541 71.783 649.541 53.9473C649.541 36.1115 663.657 23.3945 681.613 23.3945ZM681.613 72.1429C691.171 72.1429 699.109 64.8047 699.109 53.9473C699.109 43.1898 691.051 35.7516 681.613 35.7516C672.175 35.7516 664.257 43.0698 664.257 53.9473C664.257 64.8247 672.055 72.1429 681.613 72.1429ZM754.116 23.3945C772.052 23.3945 786.328 36.0915 786.328 53.9473C786.328 71.803 772.071 84.5 754.116 84.5C736.16 84.5 722.043 71.923 722.043 53.9473C722.043 36.1115 736.3 23.3945 754.116 23.3945ZM754.116 72.1429C763.674 72.1429 771.612 64.8247 771.612 53.9473C771.612 43.0698 763.674 35.7516 754.116 35.7516C744.558 35.7516 736.76 43.1898 736.76 53.9473C736.76 64.7047 744.678 72.1429 754.116 72.1429ZM821.2 23.4145C833.957 23.4145 838.096 30.4929 838.096 30.4929L838.116 30.5128H838.356C838.356 30.5128 838.236 29.0132 838.236 27.0737V16.7761C838.236 15.0565 837.336 14.2567 835.716 14.2567H832.977C831.957 14.2567 831.118 13.4169 831.118 12.3972V3.75922C831.118 2.73946 831.957 1.89966 832.977 1.89966H845.014C849.333 1.89966 852.832 5.37883 852.832 9.67781V68.3838C852.832 69.7835 853.952 70.9032 855.352 70.9032H857.971C858.991 70.9032 859.831 71.743 859.831 72.7628V81.2808C859.831 82.3005 858.991 83.1403 857.971 83.1403H846.394C841.095 83.1403 839.156 80.6209 839.156 77.1817V75.0023H838.936C838.936 75.0023 834.097 84.5 820.64 84.5C804.764 84.5 794.526 72.4629 794.526 53.9473C794.526 35.4317 805.664 23.4145 821.2 23.4145ZM838.556 53.8273C838.556 44.8094 833.837 35.8716 824.059 35.8716C816.021 35.8716 809.343 42.8699 809.343 53.9473C809.343 65.0246 815.221 72.2429 823.839 72.2429C831.438 72.2429 838.556 66.7442 838.556 53.8273Z" fill="#171717"/>
<path d="M28.3333 13.6669L24.2942 9.62783C23.1145 8.44811 22.5346 7.86825 21.9148 7.50833C20.2552 6.54856 18.2157 6.54856 16.5561 7.50833C15.9362 7.86825 15.3563 8.44811 14.1766 9.62783C8.29803 15.5064 5.35872 18.4457 3.59914 21.505C-1.19971 29.803 -1.19971 40.0206 3.59914 48.3186C5.35872 51.3779 8.29803 54.3172 14.1766 60.1958L19.2354 65.2546C29.8529 75.8721 35.1716 81.1908 41.2902 83.1703C46.6689 84.9299 52.4875 84.9299 57.8662 83.1703C63.9848 81.1708 69.3035 75.8721 79.921 65.2546L87.4992 57.6764C91.0183 54.1572 92.7779 52.3976 94.0176 50.6781C100.856 41.2803 100.856 28.5433 94.0176 19.1456C92.7779 17.446 91.0183 15.6664 87.4992 12.1472C83.98 8.62806 82.2204 6.86848 80.5008 5.62878C71.1031 -1.20959 58.3661 -1.20959 48.9683 5.62878C47.2687 6.86848 45.4892 8.62806 41.97 12.1472L39.4506 14.6666C38.2709 15.8463 37.691 16.4262 37.3311 17.0461C36.3713 18.7057 36.3713 20.7452 37.3311 22.4048C37.691 23.0246 38.2709 23.6045 39.4506 24.7842L43.4896 28.8233C45.6091 30.9428 46.6689 32.0025 47.9086 32.4024C48.9883 32.7623 50.1481 32.7623 51.2278 32.4024C52.4475 32.0025 53.5073 30.9428 55.6468 28.8233L58.686 25.784C60.8055 23.6645 61.8653 22.6047 63.105 22.2048C64.1847 21.8449 65.3445 21.8449 66.4242 22.2048C67.6439 22.6047 68.7036 23.6645 70.8431 25.784L73.8824 28.8233C76.0019 30.9428 77.0617 32.0025 77.4616 33.2422C77.8215 34.3219 77.8215 35.4817 77.4616 36.5614C77.0617 37.7811 76.0019 38.8409 73.8824 40.9804L55.6867 59.176C53.5673 61.2955 52.5075 62.3553 51.2678 62.7552C50.1881 63.1151 49.0283 63.1151 47.9486 62.7552C46.7289 62.3553 45.6691 61.2955 43.5296 59.176L25.334 40.9804C23.2145 38.8609 22.1547 37.8011 21.7548 36.5614C21.3949 35.4817 21.3949 34.3219 21.7548 33.2422C22.1547 32.0225 23.2145 30.9627 25.334 28.8233L28.3732 25.784C30.4927 23.6645 31.5525 22.6047 31.9524 21.365C32.3123 20.2853 32.3123 19.1256 31.9524 18.0458C31.5525 16.8261 30.4927 15.7664 28.3732 13.6269L28.3333 13.6669Z" fill="#171717"/>
</g>
<defs>
<clipPath id="clip0_118_97">
<rect width="860.515" height="84" fill="white" transform="translate(0 0.5)"/>
</clipPath>
</defs>
</svg>
